<svg width="291" height="100" viewBox="0 0 291 100" fill="none" xmlns="http://www.w3.org/2000/svg">
<path d="M289.083 46.5271C286.007 44.3186 277.21 42.2963 267.822 42.347C259.971 42.3894 244.82 46.6202 244.82 46.6202C239.285 41.6701 219.511 37.3123 206.337 46.7217C202.822 36.8554 188.71 32.8784 180.64 39.4785C183.462 25.5844 172.815 10.3956 158.863 8.44937C144.912 6.50317 130.614 18.1973 129.625 32.3622C130.183 23.9428 119.434 17.2157 112.209 21.472C110.933 9.20247 98.9001 -0.900824 86.6978 0.0638121C74.4956 1.02845 64.2284 12.9256 64.9214 25.2374C60.8652 18.0196 50.9699 14.821 43.5252 18.3157C42.7561 18.675 42.0208 19.1026 41.3281 19.5935C39.6487 20.7898 38.2144 22.2979 37.103 24.0359C27.7569 21.2689 12.1577 23.6551 7.89025 36.8046C7.08968 39.2411 6.77669 41.8117 6.96917 44.3694C7.04783 45.3314 7.20611 46.2852 7.44238 47.221C6.21046 47.273 5.0129 47.6431 3.96605 48.2955C2.9192 48.9479 2.05866 49.8603 1.46802 50.9441C0.178639 53.5316 -0.0898866 56.5105 0.715941 59.2874C1.35411 61.8603 2.56722 64.2547 4.26382 66.2899C5.96043 68.3251 8.09627 69.9481 10.5104 71.0366C12.9244 72.1251 15.5538 72.6507 18.2002 72.5737C20.8466 72.4967 23.4411 71.8192 25.788 70.5922C29.4216 76.9808 36.4523 81.0594 43.7534 81.9733C51.0544 82.8871 58.4991 80.8563 64.8791 77.2178C61.237 87.4226 71.4281 95.4528 75.6448 97.3228C88.9456 103.195 108.069 99.5229 117.474 85.1549C117.474 85.1549 122.367 91.6958 130.149 90.2319C135.955 89.1404 138.363 85.5187 139.36 83.0056C142.181 86.0053 145.67 88.2954 149.542 89.6893C153.415 91.0833 157.561 91.5417 161.644 91.0273C172.147 89.9696 177.919 85.1464 181.003 79.3925C184.696 80.9579 188.203 81.1609 190.552 80.4417C201.199 77.1839 200.633 68.7476 199.349 66.6745C200.566 67.1807 201.899 67.3445 203.202 67.1483C205.061 66.886 207.317 65.8706 209.692 63.239L210.63 63.5775C215.622 65.39 220.946 66.1029 226.238 65.6675C235.22 64.8891 242.175 60.7682 246.789 57.6289C252.822 57.2989 258.4 56.952 263.951 56.2243C265.354 56.0466 266.757 55.8435 268.177 55.5981C273.977 54.632 279.676 53.1365 285.204 51.1303C286.201 50.7749 287.215 50.4026 288.229 49.9964C290.773 48.9979 290.773 47.7033 289.083 46.5271Z" fill="white"/>
<path d="M203.873 59.323C202.388 59.3505 200.943 59.8007 199.706 60.6207C197.391 59.5183 194.88 58.8858 192.318 58.76C189.756 58.6341 187.194 59.0174 184.782 59.8876C185.734 57.2613 187.57 55.0455 189.977 53.6181C192.384 52.1906 195.213 51.6398 197.982 52.0595C192.692 49.0092 184.376 48.9334 179.829 52.9864C178.57 54.3261 177.457 55.7948 176.508 57.3681C176.508 57.3681 171.243 49.9024 163.586 48.7733C159.006 48.0992 151.67 50.1805 148.095 55.8514C144.123 42.858 126.782 38.5522 116.158 48.2677C123.131 45.8409 130.677 46.2285 132.503 53.4078C126.469 50.3069 118.068 54.006 116.277 60.5532C115.803 57.1827 111.096 55.3879 108.519 57.5451C107.877 58.1523 107.415 58.9241 107.184 59.7758C106.952 60.6275 106.961 61.5262 107.209 62.3733C96.1377 54.5959 80.2496 58.809 75.4493 64.4546C77.5114 57.6715 84.247 54.7728 91.8952 55.1099C83.5286 48.5458 71.2576 46.6836 62.4261 52.4809C65.9756 47.661 63.8037 39.8414 58.4626 37.1281C53.1214 34.4149 45.938 36.8164 42.904 41.9733C39.8701 47.1302 40.918 54.2419 44.9746 58.6826C40.5442 58.5511 36.1265 59.2191 31.9345 60.6544C35.6614 63.0643 36.16 68.7942 36.16 68.7942C29.6949 60.7218 19.8662 61.2105 19.8662 61.2105C19.8662 61.2105 22.4016 58.9438 28.1315 59.5252C27.1382 56.4814 25.3947 53.7349 23.0608 51.5371C19.0465 47.5936 13.173 47.2818 7.44309 47.4419C6.21104 47.4937 5.01336 47.8623 3.96641 48.512C2.91946 49.1616 2.05883 50.0702 1.46814 51.1495C0.178631 53.7261 -0.0899207 56.6926 0.715986 59.4578C1.35422 62.02 2.56744 64.4043 4.26421 66.431C5.96099 68.4577 8.09703 70.0739 10.5114 71.1579C12.9257 72.2418 15.5553 72.7652 18.202 72.6885C20.8486 72.6119 23.4433 71.9372 25.7905 70.7154C29.4245 77.0772 36.4558 81.1387 43.7576 82.0487C51.0594 82.9588 58.5048 80.9365 64.8854 77.3132C61.243 87.4753 71.4351 95.4718 75.6522 97.3341C88.9542 103.182 108.079 99.5249 117.485 85.217C117.485 85.217 122.378 91.7306 130.162 90.2728C135.968 89.1858 138.376 85.5794 139.374 83.0767C142.195 86.0639 145.684 88.3444 149.557 89.7325C153.429 91.1206 157.576 91.5772 161.659 91.0649C172.164 90.0116 177.936 85.2086 181.021 79.4787C184.714 81.0376 188.221 81.2398 190.571 80.5236C201.219 77.2795 200.653 68.8784 199.368 66.814C200.586 67.3181 201.918 67.4812 203.222 67.2859C205.081 67.0247 207.338 66.0135 209.712 63.3929L210.651 63.73C215.643 65.5349 220.967 66.2448 226.26 65.8113C217.724 62.011 209.425 58.9775 203.873 59.323Z" fill="#CCE1F4"/>
</svg>
