<svg width="290" height="100" viewBox="0 0 290 100" fill="none" xmlns="http://www.w3.org/2000/svg">
<path d="M288.823 46.5271C285.747 44.3186 276.95 42.2963 267.562 42.347C259.712 42.3894 244.56 46.6202 244.56 46.6202C239.025 41.6701 219.252 37.3123 206.077 46.7217C202.562 36.8554 188.45 32.8784 180.38 39.4785C183.203 25.5844 172.555 10.3956 158.604 8.44937C144.652 6.50317 130.354 18.1973 129.366 32.3622C129.923 23.9428 119.175 17.2157 111.95 21.472C110.674 9.20247 98.6403 -0.900824 86.438 0.0638121C74.2358 1.02845 63.9687 12.9256 64.6616 25.2374C60.6055 18.0196 50.7102 14.821 43.2654 18.3157C42.4964 18.675 41.761 19.1026 41.0683 19.5935C39.389 20.7898 37.9546 22.2979 36.8432 24.0359C27.4972 21.2689 11.8979 23.6551 7.63049 36.8046C6.82992 39.2411 6.51692 41.8117 6.7094 44.3694C6.78806 45.3314 6.94634 46.2852 7.18262 47.221C5.95069 47.273 4.75313 47.6431 3.70628 48.2955C2.65944 48.9479 1.79889 49.8603 1.20825 50.9441C-0.0811263 53.5316 -0.349652 56.5105 0.456176 59.2874C1.09434 61.8603 2.30745 64.2547 4.00406 66.2899C5.70066 68.3251 7.83651 69.9481 10.2506 71.0366C12.6647 72.1251 15.294 72.6507 17.9404 72.5737C20.5869 72.4967 23.1813 71.8192 25.5282 70.5922C29.1619 76.9808 36.1925 81.0594 43.4936 81.9733C50.7947 82.8871 58.2394 80.8563 64.6194 77.2178C60.9773 87.4226 71.1683 95.4528 75.385 97.3228C88.6858 103.195 107.809 99.5229 117.214 85.1549C117.214 85.1549 122.107 91.6958 129.89 90.2319C135.695 89.1404 138.103 85.5187 139.1 83.0056C141.921 86.0053 145.41 88.2954 149.282 89.6893C153.155 91.0833 157.301 91.5417 161.384 91.0273C171.888 89.9696 177.659 85.1464 180.743 79.3925C184.436 80.9579 187.943 81.1609 190.292 80.4417C200.94 77.1839 200.374 68.7476 199.089 66.6745C200.307 67.1807 201.639 67.3445 202.942 67.1483C204.801 66.886 207.058 65.8706 209.432 63.239L210.37 63.5775C215.362 65.39 220.686 66.1029 225.978 65.6675C234.961 64.8891 241.915 60.7682 246.529 57.6289C252.563 57.2989 258.14 56.952 263.692 56.2243C265.094 56.0466 266.497 55.8435 267.917 55.5981C273.717 54.632 279.416 53.1365 284.944 51.1303C285.941 50.7749 286.955 50.4026 287.969 49.9964C290.513 48.9979 290.513 47.7033 288.823 46.5271Z" fill="white"/>
<path d="M203.613 59.323C202.128 59.3505 200.683 59.8007 199.447 60.6207C197.132 59.5183 194.62 58.8858 192.058 58.76C189.496 58.6341 186.934 59.0174 184.522 59.8876C185.474 57.2613 187.31 55.0455 189.717 53.6181C192.124 52.1906 194.954 51.6398 197.723 52.0595C192.432 49.0092 184.116 48.9334 179.57 52.9864C178.311 54.3261 177.197 55.7948 176.248 57.3681C176.248 57.3681 170.983 49.9024 163.326 48.7733C158.746 48.0992 151.41 50.1805 147.835 55.8514C143.863 42.858 126.522 38.5522 115.899 48.2677C122.871 45.8409 130.418 46.2285 132.243 53.4078C126.209 50.3069 117.809 54.006 116.017 60.5532C115.544 57.1827 110.836 55.3879 108.259 57.5451C107.617 58.1523 107.155 58.9241 106.924 59.7758C106.693 60.6275 106.701 61.5262 106.949 62.3733C95.8779 54.5959 79.9898 58.809 75.1896 64.4546C77.2516 57.6715 83.9872 54.7728 91.6355 55.1099C83.2689 48.5458 70.9978 46.6836 62.1664 52.4809C65.7159 47.661 63.5439 39.8414 58.2028 37.1281C52.8617 34.4149 45.6782 36.8164 42.6443 41.9733C39.6103 47.1302 40.6582 54.2419 44.7148 58.6826C40.2844 58.5511 35.8667 59.2191 31.6747 60.6544C35.4016 63.0643 35.9003 68.7942 35.9003 68.7942C29.4351 60.7218 19.6065 61.2105 19.6065 61.2105C19.6065 61.2105 22.1418 58.9438 27.8717 59.5252C26.8784 56.4814 25.135 53.7349 22.801 51.5371C18.7867 47.5936 12.9132 47.2818 7.18332 47.4419C5.95127 47.4937 4.7536 47.8623 3.70665 48.512C2.6597 49.1616 1.79907 50.0702 1.20837 51.1495C-0.0811342 53.7261 -0.349686 56.6926 0.45622 59.4578C1.09445 62.02 2.30768 64.4043 4.00445 66.431C5.70122 68.4577 7.83727 70.0739 10.2516 71.1579C12.6659 72.2418 15.2955 72.7652 17.9422 72.6885C20.5889 72.6119 23.1836 71.9372 25.5307 70.7154C29.1647 77.0772 36.1961 81.1387 43.4978 82.0487C50.7996 82.9588 58.2451 80.9365 64.6257 77.3132C60.9832 87.4753 71.1753 95.4718 75.3924 97.3341C88.6945 103.182 107.819 99.5249 117.226 85.217C117.226 85.217 122.119 91.7306 129.902 90.2728C135.708 89.1858 138.117 85.5794 139.114 83.0767C141.935 86.0639 145.424 88.3444 149.297 89.7325C153.17 91.1206 157.316 91.5772 161.4 91.0649C171.904 90.0116 177.676 85.2086 180.761 79.4787C184.454 81.0376 187.961 81.2398 190.311 80.5236C200.959 77.2795 200.393 68.8784 199.109 66.814C200.326 67.3181 201.659 67.4812 202.962 67.2859C204.821 67.0247 207.078 66.0135 209.453 63.3929L210.391 63.73C215.383 65.5349 220.707 66.2448 226 65.8113C217.464 62.011 209.165 58.9775 203.613 59.323Z" fill="#CCE1F4"/>
</svg>
